<mxfile host="65bd71144e">
    <diagram id="7dM-v0KOHtfD-EDZJ1qF" name="Page-1">
        <mxGraphModel dx="1050" dy="600" grid="1" gridSize="10" guides="1" tooltips="1" connect="1" arrows="1" fold="1" page="1" pageScale="1" pageWidth="850" pageHeight="1100" math="0" shadow="0">
            <root>
                <mxCell id="0"/>
                <mxCell id="1" parent="0"/>
                <mxCell id="27" style="edgeStyle=none;html=1;entryX=0.5;entryY=0;entryDx=0;entryDy=0;entryPerimeter=0;" edge="1" parent="1" source="26" target="20">
                    <mxGeometry relative="1" as="geometry"/>
                </mxCell>
                <mxCell id="51" style="edgeStyle=none;html=1;entryX=0;entryY=0.25;entryDx=0;entryDy=0;entryPerimeter=0;" edge="1" parent="1" source="26" target="33">
                    <mxGeometry relative="1" as="geometry"/>
                </mxCell>
                <mxCell id="26" value="&lt;p style=&quot;margin:0px;margin-top:4px;margin-left:10px;text-align:left;&quot;&gt;&lt;b&gt;DataAccess&lt;/b&gt;&lt;/p&gt;" style="html=1;shape=mxgraph.sysml.package;html=1;overflow=fill;whiteSpace=wrap;" vertex="1" parent="1">
                    <mxGeometry x="170" y="270" width="400" height="370" as="geometry"/>
                </mxCell>
                <mxCell id="21" value="&lt;p style=&quot;margin:0px;margin-top:4px;margin-left:10px;text-align:left;&quot;&gt;&lt;b&gt;UserInterface&lt;/b&gt;&lt;/p&gt;" style="html=1;shape=mxgraph.sysml.package;html=1;overflow=fill;whiteSpace=wrap;" vertex="1" parent="1">
                    <mxGeometry x="170" y="1210" width="400" height="190" as="geometry"/>
                </mxCell>
                <mxCell id="22" style="edgeStyle=none;html=1;entryX=0.5;entryY=0;entryDx=0;entryDy=0;entryPerimeter=0;" edge="1" parent="1" source="20" target="21">
                    <mxGeometry relative="1" as="geometry"/>
                </mxCell>
                <mxCell id="20" value="&lt;p style=&quot;margin:0px;margin-top:4px;margin-left:10px;text-align:left;&quot;&gt;&lt;b&gt;Business Logic&lt;/b&gt;&lt;/p&gt;" style="html=1;shape=mxgraph.sysml.package;html=1;overflow=fill;whiteSpace=wrap;" vertex="1" parent="1">
                    <mxGeometry x="170" y="740" width="400" height="370" as="geometry"/>
                </mxCell>
                <mxCell id="11" value="&lt;p style=&quot;margin:0px;margin-top:4px;text-align:center;&quot;&gt;&amp;lt;&amp;lt;interface&amp;gt;&amp;gt;&lt;br&gt;&lt;b&gt;ILogin&lt;/b&gt;&lt;/p&gt;&lt;hr&gt;&lt;p style=&quot;margin:0px;margin-top:4px;margin-left:4px;text-align:left;&quot;&gt;&lt;br&gt;&lt;/p&gt;" style="shape=rect;html=1;overflow=fill;whiteSpace=wrap;" vertex="1" parent="1">
                    <mxGeometry x="270" y="1270" width="200" height="80" as="geometry"/>
                </mxCell>
                <mxCell id="13" value="DataHelper" style="swimlane;fontStyle=1;align=center;verticalAlign=top;childLayout=stackLayout;horizontal=1;startSize=26;horizontalStack=0;resizeParent=1;resizeParentMax=0;resizeLast=0;collapsible=1;marginBottom=0;" vertex="1" parent="1">
                    <mxGeometry x="280" y="310" width="190" height="140" as="geometry"/>
                </mxCell>
                <mxCell id="14" value="- DBPathConnection : String&#10;- conn : Connection" style="text;strokeColor=none;fillColor=none;align=left;verticalAlign=top;spacingLeft=4;spacingRight=4;overflow=hidden;rotatable=0;points=[[0,0.5],[1,0.5]];portConstraint=eastwest;" vertex="1" parent="13">
                    <mxGeometry y="26" width="190" height="44" as="geometry"/>
                </mxCell>
                <mxCell id="15" value="" style="line;strokeWidth=1;fillColor=none;align=left;verticalAlign=middle;spacingTop=-1;spacingLeft=3;spacingRight=3;rotatable=0;labelPosition=right;points=[];portConstraint=eastwest;strokeColor=inherit;" vertex="1" parent="13">
                    <mxGeometry y="70" width="190" height="8" as="geometry"/>
                </mxCell>
                <mxCell id="16" value="# getDBConnection : String&#10;# getConnection : Connection&#10;# getResultSet : ResultSet" style="text;strokeColor=none;fillColor=none;align=left;verticalAlign=top;spacingLeft=4;spacingRight=4;overflow=hidden;rotatable=0;points=[[0,0.5],[1,0.5]];portConstraint=eastwest;" vertex="1" parent="13">
                    <mxGeometry y="78" width="190" height="62" as="geometry"/>
                </mxCell>
                <mxCell id="2" value="UsuarioBL" style="swimlane;fontStyle=1;align=center;verticalAlign=top;childLayout=stackLayout;horizontal=1;startSize=26;horizontalStack=0;resizeParent=1;resizeParentMax=0;resizeLast=0;collapsible=1;marginBottom=0;" vertex="1" parent="1">
                    <mxGeometry x="190" y="770" width="360" height="80" as="geometry"/>
                </mxCell>
                <mxCell id="4" value="" style="line;strokeWidth=1;fillColor=none;align=left;verticalAlign=middle;spacingTop=-1;spacingLeft=3;spacingRight=3;rotatable=0;labelPosition=right;points=[];portConstraint=eastwest;strokeColor=inherit;" vertex="1" parent="2">
                    <mxGeometry y="26" width="360" height="8" as="geometry"/>
                </mxCell>
                <mxCell id="5" value="+ acGetUserLogin(String acEmail, String acContrasena) : Usuario" style="text;strokeColor=none;fillColor=none;align=left;verticalAlign=top;spacingLeft=4;spacingRight=4;overflow=hidden;rotatable=0;points=[[0,0.5],[1,0.5]];portConstraint=eastwest;" vertex="1" parent="2">
                    <mxGeometry y="34" width="360" height="46" as="geometry"/>
                </mxCell>
                <mxCell id="23" value="&lt;p style=&quot;margin:0px;margin-top:4px;margin-left:10px;text-align:left;&quot;&gt;&lt;b&gt;Entities&lt;/b&gt;&lt;/p&gt;" style="html=1;shape=mxgraph.sysml.package;html=1;overflow=fill;whiteSpace=wrap;" vertex="1" parent="1">
                    <mxGeometry x="210" y="885" width="320" height="200" as="geometry"/>
                </mxCell>
                <mxCell id="7" value="Usuario" style="swimlane;fontStyle=1;align=center;verticalAlign=top;childLayout=stackLayout;horizontal=1;startSize=26;horizontalStack=0;resizeParent=1;resizeParentMax=0;resizeLast=0;collapsible=1;marginBottom=0;" vertex="1" parent="1">
                    <mxGeometry x="295" y="930" width="150" height="110" as="geometry"/>
                </mxCell>
                <mxCell id="8" value="- acEmail : String&#10;- acContrasena : String" style="text;strokeColor=none;fillColor=none;align=left;verticalAlign=top;spacingLeft=4;spacingRight=4;overflow=hidden;rotatable=0;points=[[0,0.5],[1,0.5]];portConstraint=eastwest;" vertex="1" parent="7">
                    <mxGeometry y="26" width="150" height="34" as="geometry"/>
                </mxCell>
                <mxCell id="9" value="" style="line;strokeWidth=1;fillColor=none;align=left;verticalAlign=middle;spacingTop=-1;spacingLeft=3;spacingRight=3;rotatable=0;labelPosition=right;points=[];portConstraint=eastwest;strokeColor=inherit;" vertex="1" parent="7">
                    <mxGeometry y="60" width="150" height="8" as="geometry"/>
                </mxCell>
                <mxCell id="10" value="+ acGetEmail : void&#10;+ acGetContrasena : void" style="text;strokeColor=none;fillColor=none;align=left;verticalAlign=top;spacingLeft=4;spacingRight=4;overflow=hidden;rotatable=0;points=[[0,0.5],[1,0.5]];portConstraint=eastwest;" vertex="1" parent="7">
                    <mxGeometry y="68" width="150" height="42" as="geometry"/>
                </mxCell>
                <mxCell id="25" style="edgeStyle=none;html=1;" edge="1" parent="1" source="2" target="7">
                    <mxGeometry relative="1" as="geometry"/>
                </mxCell>
                <mxCell id="28" value="UsuarioDAC" style="swimlane;fontStyle=1;align=center;verticalAlign=top;childLayout=stackLayout;horizontal=1;startSize=26;horizontalStack=0;resizeParent=1;resizeParentMax=0;resizeLast=0;collapsible=1;marginBottom=0;" vertex="1" parent="1">
                    <mxGeometry x="280" y="530" width="190" height="96" as="geometry"/>
                </mxCell>
                <mxCell id="30" value="" style="line;strokeWidth=1;fillColor=none;align=left;verticalAlign=middle;spacingTop=-1;spacingLeft=3;spacingRight=3;rotatable=0;labelPosition=right;points=[];portConstraint=eastwest;strokeColor=inherit;" vertex="1" parent="28">
                    <mxGeometry y="26" width="190" height="8" as="geometry"/>
                </mxCell>
                <mxCell id="31" value="+ UsuarioDAC()Â &#10;+ acGetUsuario() : ResultSet" style="text;strokeColor=none;fillColor=none;align=left;verticalAlign=top;spacingLeft=4;spacingRight=4;overflow=hidden;rotatable=0;points=[[0,0.5],[1,0.5]];portConstraint=eastwest;" vertex="1" parent="28">
                    <mxGeometry y="34" width="190" height="62" as="geometry"/>
                </mxCell>
                <mxCell id="33" value="&lt;p style=&quot;margin:0px;margin-top:4px;margin-left:10px;text-align:left;&quot;&gt;&lt;b&gt;Framework&lt;/b&gt;&lt;/p&gt;" style="html=1;shape=mxgraph.sysml.package;html=1;overflow=fill;whiteSpace=wrap;" vertex="1" parent="1">
                    <mxGeometry x="700" y="740" width="400" height="380" as="geometry"/>
                </mxCell>
                <mxCell id="36" value="Extends" style="endArrow=block;endSize=16;endFill=0;html=1;shape=flexArrow;exitX=0.5;exitY=0;exitDx=0;exitDy=0;" edge="1" parent="1" source="28" target="16">
                    <mxGeometry width="160" relative="1" as="geometry">
                        <mxPoint x="420" y="480" as="sourcePoint"/>
                        <mxPoint x="700" y="430" as="targetPoint"/>
                    </mxGeometry>
                </mxCell>
                <mxCell id="37" value="APP" style="swimlane;fontStyle=1;align=center;verticalAlign=top;childLayout=stackLayout;horizontal=1;startSize=26;horizontalStack=0;resizeParent=1;resizeParentMax=0;resizeLast=0;collapsible=1;marginBottom=0;" vertex="1" parent="1">
                    <mxGeometry x="797.5" y="782" width="205" height="68" as="geometry"/>
                </mxCell>
                <mxCell id="38" value="+ ACNOMBRE:COMPLETO : String&#10;+ ACNUMERO_CEDULA : String" style="text;strokeColor=none;fillColor=none;align=left;verticalAlign=top;spacingLeft=4;spacingRight=4;overflow=hidden;rotatable=0;points=[[0,0.5],[1,0.5]];portConstraint=eastwest;" vertex="1" parent="37">
                    <mxGeometry y="26" width="205" height="34" as="geometry"/>
                </mxCell>
                <mxCell id="39" value="" style="line;strokeWidth=1;fillColor=none;align=left;verticalAlign=middle;spacingTop=-1;spacingLeft=3;spacingRight=3;rotatable=0;labelPosition=right;points=[];portConstraint=eastwest;strokeColor=inherit;" vertex="1" parent="37">
                    <mxGeometry y="60" width="205" height="8" as="geometry"/>
                </mxCell>
                <mxCell id="41" value="AppExecption" style="swimlane;fontStyle=1;align=center;verticalAlign=top;childLayout=stackLayout;horizontal=1;startSize=26;horizontalStack=0;resizeParent=1;resizeParentMax=0;resizeLast=0;collapsible=1;marginBottom=0;" vertex="1" parent="1">
                    <mxGeometry x="720" y="950" width="160" height="70" as="geometry"/>
                </mxCell>
                <mxCell id="43" value="" style="line;strokeWidth=1;fillColor=none;align=left;verticalAlign=middle;spacingTop=-1;spacingLeft=3;spacingRight=3;rotatable=0;labelPosition=right;points=[];portConstraint=eastwest;strokeColor=inherit;" vertex="1" parent="41">
                    <mxGeometry y="26" width="160" height="8" as="geometry"/>
                </mxCell>
                <mxCell id="44" value="+ setDebuggingLog (): void" style="text;strokeColor=none;fillColor=none;align=left;verticalAlign=top;spacingLeft=4;spacingRight=4;overflow=hidden;rotatable=0;points=[[0,0.5],[1,0.5]];portConstraint=eastwest;" vertex="1" parent="41">
                    <mxGeometry y="34" width="160" height="36" as="geometry"/>
                </mxCell>
                <mxCell id="45" value="EncriptarContrasena" style="swimlane;fontStyle=1;align=center;verticalAlign=top;childLayout=stackLayout;horizontal=1;startSize=26;horizontalStack=0;resizeParent=1;resizeParentMax=0;resizeLast=0;collapsible=1;marginBottom=0;" vertex="1" parent="1">
                    <mxGeometry x="910" y="950" width="180" height="110" as="geometry"/>
                </mxCell>
                <mxCell id="46" value="- ACALGORITMO : String&#10;- ACCLAVE_SECRETA : String" style="text;strokeColor=none;fillColor=none;align=left;verticalAlign=top;spacingLeft=4;spacingRight=4;overflow=hidden;rotatable=0;points=[[0,0.5],[1,0.5]];portConstraint=eastwest;" vertex="1" parent="45">
                    <mxGeometry y="26" width="180" height="34" as="geometry"/>
                </mxCell>
                <mxCell id="47" value="" style="line;strokeWidth=1;fillColor=none;align=left;verticalAlign=middle;spacingTop=-1;spacingLeft=3;spacingRight=3;rotatable=0;labelPosition=right;points=[];portConstraint=eastwest;strokeColor=inherit;" vertex="1" parent="45">
                    <mxGeometry y="60" width="180" height="8" as="geometry"/>
                </mxCell>
                <mxCell id="48" value="+ acEncriptar() : String&#10;+ acDesenciptar() : String" style="text;strokeColor=none;fillColor=none;align=left;verticalAlign=top;spacingLeft=4;spacingRight=4;overflow=hidden;rotatable=0;points=[[0,0.5],[1,0.5]];portConstraint=eastwest;" vertex="1" parent="45">
                    <mxGeometry y="68" width="180" height="42" as="geometry"/>
                </mxCell>
                <mxCell id="54" value="&lt;p style=&quot;margin:0px;margin-top:4px;margin-left:10px;text-align:left;&quot;&gt;&lt;b&gt;design&lt;/b&gt;&lt;/p&gt;" style="html=1;shape=mxgraph.sysml.package;html=1;overflow=fill;whiteSpace=wrap;" vertex="1" parent="1">
                    <mxGeometry x="690" y="270" width="220" height="130" as="geometry"/>
                </mxCell>
                <mxCell id="55" value="" style="shape=image;verticalLabelPosition=bottom;labelBackgroundColor=default;verticalAlign=top;aspect=fixed;imageAspect=0;image=data:image/png,iVBORw0KGgoAAAANSUhEUgAAAL0AAABcCAYAAAA7z7QXAAAAAXNSR0IArs4c6QAAAARnQU1BAACxjwv8YQUAAAAJcEhZcwAADsMAAA7DAcdvqGQAABZeSURBVHhe7Z1fTFxXfse/NsZmwMMYMGaMYeKJbQjENtgmsUlS6DqJ3Fob7yqqthtV6UtaVfvS7Z+n5mHb7kMeKrXNSpX6UGUfulKidlfZKittlc3KFc5mbUckJsYLMTYZe7ANxvyZYYwHgw39/c45995z5x9zMQTDnI90xT33z7nnz+/8zu93mHPOBl/ZtgUYDAXERvXXYCgYjNAbCg4j9IaCwwi9oeDw7Mj+48tJvNI0p0KSX/QX4+8/8qmQwfB4syRNv7dq3nU8zlQ0v47jzSEVWsuE0HCiExUqtNz4Qqdw/OgBFILqWvfmzWTfT3C6LyoDVZ2PXrG+AziygsK3WiSjH+D0+V4kVXg9Y2x6Q8FRVLy55B/UeV6EyAXYV/0Q54c24cp4kbj2v5c344theZ4v3J12HHsW4b0tdFQgNngdM9b1XZsx9+QJtO13rrOZ8txhfrYFxbEYqjpaMc/3WPMeqUHs5igeiJgDqDt6AuUTlzFFF/i9p33XEQucQEdLDVASRL2I4yLGWa3x+y+eQFNKOgTcM3R0OGmM7cZz7Y0ooW/spGuVc9cxHK8hs0OlRb3G3wzNy/jl9xfgP3YCLdsXMELp9Gt5CatrMu1u3Hm+DtRW4J6V5xebUDTXgjYqQ5kXNn9OoUWk1UrbfVdaZNl8B/uK5D29rOZqudyTiNyJ84Mp9bMbc7dkea4HPGv6XYF5bCH5/u67ZeLYsgl46Pl/ugFUbY3g7IdketBxYSiEQ7rdXR8GLvK9LkxSkCvgELrEs3zcqelEnXwyb0T33U1mTqxHfHdgnK+SoHSEcfuMjPd0N3DIMn9Y4NuAC+qbZ/sngHFKw5kexBEV1z+LSgFZjEBTJe5wPMJ8CKHazssHGEArmkMB9aTD4nkOoUbdF3mpojLrls9yGtFEz1NGJm9HUVdjlW0ApZR6bFXf83EcEdUgNCjv7U1xO++nz0RQ07F+TDpPQh/aNo+/+/0ZfO/npeoKxDlf43v5E8eNPsd+5IpxMdSDG3ZFhFDfBAxEnGcm+7pwQ50/Cr5QK+r0b41HcGNbJWly0rIkKDe6ZaNjktFe+9wr8f4e7d0oBiwfg8phfDhTw8knz1F8pTc6apCyIRPJKG7H1Pm9CcRJiQiBpYbhH44gYYVLK4HhaIodT9p/rzvvSPbiK1JM1VUqvMZZVOh/L/wAf3p4Vhz/dDKJc9FNCFc6As7nt6Y2invWc/zOorAmPfG6PNoWG12JYzpVGy0X9Vo6yEGto0ov89Hhj+PePfXMMsNa3Ppme1O6lpd4zTObKlY+TqFhm7osGgDniRtyALfv9OLOkBUOITGdqdGl533mbhz+smxpXVvkpen/7Vv3xHGycQ7HQg/wF0fZHpTwOV/je9Zzi8ICv3fCNm+E2ZETWUk2JJR+dfqoxPvJ7LHSIY4PlOYnU8Dp0JYNFvj2rT329872ZzORvOSZBf4USq86eRiwNL3oTYCa6hDKlCkzc1eF/VHcsXoHF+l5LyGTKHMDWXusyuiNjzVGIm53q6xxskMVQ5qpIew8UxFupWpRJONIbAujSgmIL9TpaLlFSN6J2LavG2l21LU5dqwvdCCLTUtaMaZ1/dSgD9Wr8wyw8MRJa0rIt9npaE92Oo8I+36RPKdBQrpN085sq2tlkCRhDexsJftdlrnIN4cTkQwmW3re2dl/sj5bA1l7rIrQJ6Nkf/ods6KaKjkXk32kufTnb+v2bRRD/SCHVN5rRo+m5VIYp3vkOLbTcw0spGSrftYdt98Vh3Ko2fE92x/AIXW9fSdpSHFD2rd8XQoo+SdXyVlsU+/XRMgx5wczw7Z5oskybzpRSo0/E7nznAr5CXo+DlYioZeB8FVIU1u+E5s83ITsxucmNe/HOyrxlRpUWA8s+jMEts9/9IrbZEnObcDz/y4720++l4Cv2B3F939Rio8jm1RoJeDhuTDurKOKMHx9rNFJJEboDUtnVcwbg2E1MdMFDQWH0fSGgsMIvaHgMEJvKDiM0BsKDiP0hoLDCL2h4DBCbyg4zGoIhoJjSZp+RVZD4J8bW7OnxOTrUxl+/Wh4dFZ2VQX+pejjvvrE42ne8K8f7d+1r0VYsNQvFMWx/lZPyIZr9YnHFGPTLzdiRlinM1+VjzMTqM4wD9awOni26Xk64PdfmMGVMbn6wb6qh/jRJyX4z883i3D+yG5WTnaO4gJPyq6JSC3B5o32G27uMu2JGTyxW1ufRcxEUlPu4v1duL2zFbjIvQTH34p7/XE0NIXEDKnPogHtm/w8X5O/KedvPHm3B4mmVnl/qIvSAud5EbY0mJ52PR71zTPZeyk9vSLf2i9F9Xymps2ZmJLfOzr6Mzz3FW3qF6qqnG/3U7lQmm5QQx24x9ecCSvi2riMo/q2NaFeztSqGba+x2Fq6FTu02EuRycd7vzGMZCjbL4uPC8BcvKpORyqfYjj/+HHz3o34y+fv48z1zahd8TLEiBcSCdQfOkn6O69iMjgAkIdLSifui6XoCiuQe0TPkyKZTVCCFVfR/e5j+m565ir60TYWsKCtGrHE8M42/URrgxeRCzQiVaq3PHrvFxFAFV7GxGe6cFpelc+34qqWx/Ib95aQG1bK4rU0ha+6hbs3jOLQTKr+gdjKD7ciZa9G13hKmvZkGzxBFrRUjqMgWuZl/TgfAd3LWDgnErvlg4cqo6JPLNwPLP5vEhrhO7JJTqk0DxT9aWdxwgvQ3KwXCwbUpzlHZ3UeOfDp9AYiGOEy1aUcyO2jv0Kv/38U5E3X20T5qnxfPElf6sCLW27xbIok/N0XrOglgipQbCuAlsQwzCHfQ3YVxNDlPK9icqxYvayUz8t96mRchlyWW3Gvo4mzIh6XT08mTfLthoCCU0DejBkTz/jmT/Z7MBsqwdQw+FZ+1cdrS9mZLlmTZFm0VYUyLpigMJZtYCn66WH7YnRueLRpkGmk30VCJ7SB38gZfU1tSrCRecdOftLTo/M/I6O91UVuAxdq0Oo0/W0qsKiQr9iqyHkFA43rK0sp9C9eoDXFQu4h7GcS23FAM/kiCenEBLC5lfv6qtAUEM6OxwWUxndSw+mropA4YSauJ31HR2vqyroTrhjwsnGvT5WVchL0y/7aghMinCIyeIZEDZh1tUDUmft8wRpdZoGC2q2FQO8kCMeMRfVmaSeBgt8jlUgxIJUnEcWZHvYL2VVBA5ry5NkfkfHy6oKlk9i5U3vFdbPqgqrM3ojhKMV9XY3x91wZqHPvnqAmrW/19FwYvEmdZ5O7hUD8idXPNYk9ZT/MZDD2BCiRp7nKhCO2aJWRTioaXFhGqavSua8I3shMfHdej/fVRVEg9B6BjJj9PJcL6sqLOrIPlExjz9pnVUhyejdjfhx9xZx/sYzs6jZ6h4AerdnM6KxXO2JCoQcwN3t1hqS5DB2x7Fzq3TqdEd28k5MrgMpngtSQd/HllnpyD6IXxZrVD6j1nssHzuPaHEQuG05skHMCadWfTMWRFu7WpsyMIuxmRLMiWepPnQHjMgeHs0ZD6cpot8Xz4zgd+SXJOMjao1Oef3hVBTl5Axajqy9dmRtHBe6PkWCvjtzhx10J4/h0og9epX5nRKU1zWieEI63TN3yPnXv3mlC1PWmpiuAQPiwShicy14xorzIfkg1ELEs3w/uYDi/Y2YvfKxbHQP7qOorgVb6VuZyo3LYkSP74lZ9GsjT6vFGl0NIRvcPZsJ44bcrKs5smI8mhc1fcz/I2hYXda00AsnV/cFUv5xZTBkYl1peoMhH1Zn9MZgWEWM0BsKDiP0hoLDCL2h4DBCbyg4jNAbCg4j9IaCw/M4vVkNwbDWWZKmX5HVEJr/Ci+9/Ko8D76B51/7ARqDMmjwygto/PYKlt8ar5/H07wZeQefvPdDXB5R4TXDqzicSRhYSL79hvodOwvkW3jJDqfCcbyF54+9IIO6MnhcWIX6aTzyCo4c/zPsa/1DbNiwQV0lU4XOG498U9wL7m5RV3NjbPpVYQZJ7MG+ZhXU8B/bj0p1bnAzP/8QJWXb6HAWVNkaCIrwwkL+Fofn3/8OjhfhyvhG12oIfM07rNHaVAWPou8LcSJhzfgNPyLvvY1bFKx9+S00b5e3kBzE+f95R/zWnPEf+wGOhnmPb7oV6cZYcD9wjrUQx78f05Ep1Id30L1f4pNzO7Rv8vN87TfinL8RTgwiGd4j749149cfwXlehN/nM0JPuzuefBkbGUX9LtLgfVaczKvYF57CUASwspsvaeUgziSuvKny82cqU+5VdkXtfIo4gzft8ubwQZzGJ9caXfWTWh7uslo+5ucfYGNRMSpq9iB5d0JcK99eh4X5ecxveCjC+eBZ0+8KzGMLyfh33y0TxxZqNg89/2SNu/g24Is38ev3+Igi2LJD3UvlVQRBhSie+yWGSEMe1Lp+USni3pu4iP2od/nTJaj3UyXSPSGUPJ3O+ub/DQLh4y5TxBf2Y0TE1Y2J7W146bWQK3zY0syLxJMX17oxVLbf9Z7Q8mNRJUgeWLQctLwJAc5Spn1RymcIteodP9lfSTLCLLOsltI6di21ccu69FHDl/G9iT60OebZMvJg7j5mpidRXlFLwr8JRcUlCFSFMDU+5EnTexL6ZVsNobkN9RjElT4Vxvv4/ItRdZ4K3bO1xm9wa8RaPIIKu2EHJgYcrZ84dxpDrt8Vz2CoV9M4fW/jc+ubI5cxlvIbZNaQUuDexwipytSwr1xV5CLx5AfnBag/YNnrUqhc6c2LfMpBzwuTrUxHMZ3cgaBo3NQwym5ibNoK70AZboo0u1B1eVHr6W71kiIINmbxWR6NydEItvj8KCuvhj9Qg6JNm3E3dlvdzY9FhX7FVkOgFmtV0mJwt/oSOXd8WF24ZAbTspfLE+VEirhOpmnD/FmeeBLnLjmalYVn+tISnUOv5ZCtTGUDEI2bejMfNejLN0ftcGW2Oku9PjKJJAnmSgj9dHwU8w/nhImzbUcYszMJ3LvrbdJtXpp+RVZDIOdDLxR/ebk6cyPsSv8lu+s8H9GXCSpBmW1IMqSNsgogC+pJlA3IeES3viQNnSse1pSpaSIq/fBlFJj3cSVSjvCxV0lbly9By1t4KYfcZZq4dlNo6VqqDmHKTFCqRbgcEzezpC+lLhGsgC+ZyFupeWH2/jTiEzcRqNwFf0UQsdHrdNWbfb06ozdsO/r00Qt24HQN7uD3lyCZsEwfNgHcWqmywRn6yz3ywYKgaUSqyO1L0tC54klPk3DyyF/JJjBCyMJsImQwHXLBTqcY9vRaDrnKlBBaehfCZGolOD1svoHDUxixzVENVZe2n0XUHtgj3lsJoWemxoawabMPGzYUIU72vFdWR+jZpiQH0NdimQjkMGax6W991I1k+KR67jjKpjWtdO6H6Jveg6Oqmz6ISzm0N/sNU6j/hvrmMT+SS9L0ueNJTdNLr0knz/YBUhl5BxHyF3SbPA3hVFvxaWP4Cm/lkLtMOX8jYyXUM1kONTcq8mcodZnTR+VBjr4TH48UeR/N8sLU5E0kp2OYnhrFzD3vixets9UQeOiMR1ysoTSDIZ11NUdWjOfzUNwKjBEb1g9rWuiFQ6b7Ain/uDIYMmFWQzAUHKvkyBoMq4cRekPBYYTeUHAYoTcUHEboDQWHEXpDwZH3kOXf7t2NOl/672NuJGfwz1evqZDB8PiTl9D/8a4g/vXAUyrk8NuJGJ6r3CaE3gi+Ya3wSObNEGn5o13nRC/AhyEd3ijiiIfdwvn54xk3TCtE5E6Hcv+s5eORNP1/3RzBX/d+iXoye853HvOg8eUOfa6tKLUdudM2W0CGnabFbtfuTcPcO3c72/BwfM3oyrib9uJkSKuHzR9YiPUdtFeWR0vrqsA7Lupbi8K9I/pKkNeO4fvLt+IPapypyizsb1y4hHYybT4cHcPUgwf4b7r248P7cZZMHu4BcsObgQUx/ulP5c7Ug3IzsH1qJ/DiQCPK1S7WvMu12LisSe6SLeZkcUG1BxE9Y73PRwz+XSUYFzta8yZrajMxCnF81VC7jHsmNa1y47MGX37xpW7YtrKkpzVildnjSuluhB/KXd05vWJjtl1JtTP5yrAkoWdB/13iLt4m7W+ZNn++W26+yELP93LDlUPmkNqRD7iPqZkKNFXKzKYJqdjVrhazLMSs4dt96P/wVxh11WZcCTyz3EKvpxWYmXfSKnqcIzWI2cLF2vYEyif0XQtHUPTUKbXD327Mqa35xbsvNqGIKrrt2LMojvE29q/jab1BcQPvsHYqrBBb1s+InuyU2nGxBZVz1vPpabXgHue5arV7o0jjd2wlI+5ZuxduX7CVC19/2rcAe3fHLfx+wPm2CDvC6drtULsn44lpZWDlg2Cht3aVJB5sCiK800oD57MTPlVeXtOTjSXZ9DyKwybN14XYH3ZI7lXqqw4joM5XBxIY3v5d2+J+MQJNrcBFa8PkOBo6tL1VqWJreHM4umdvvW8hun5Qdy/fPduvpmtVhYFuFd+ZHqCp071vbQbE9vj1VI78nNiLtgd9yhSsVt8XG0GjFc2aDxJoqiQzke/x+5QeYTY6YdveprS274zYG0NfQKfLl9HL4MJQCIey+C28t+6Nq9nNsbzTk4MlCf050uYs9Dx6szxQiya7ThekQJOzNT7b4/qOgc5mygRrS/Vc9q3is8Paw/pOdgeStEmH9VynqLw0Ac1BvJ8qxKrF8R4MxEjQ7MqJ4qss9r4QgG7Hvk1Ge+X5eJfz/SRvX6/OBXpadSc6igFucOED1GgDGLhoCRZdt8tWbnisE+/vUd/njZjTw3LLe6UINGGdpLoMbHWEXi8DvufaMV4Ir0zvIX8PhnKUbX7pyc2SR2/+hrrpn5Idz44r2/iL2/GppAgSaS5dkNgpFdqnmwqPtISjGelNrTCR7MVn/BxpvMU7tnQm+6T2EYfWsNywIy2fuZCyA7d34pjO6wf/7u3w3bB5YpVdiuOqpZUPlwPNDc7fipphrRESbJZYQuceQPBGXZuVJjrYOdUFW+fehLuueBDDqoOLQDPJg17fy41noWchZwH/FzVKwzY8Cz87st5wV05WzUlajbvDJ5XG4q3Z4/XhFS2UXLjMhCWRS5hTCaDUWWJIwQJ/CqVXrbIjkyTfDpfNmkQUCc0cEiNlW8mRVPVwtn8pqoNx16c4ljJqJHouKqMll+/ieBJ6Hp5kIf/Zs61iCJMPPudjJcfpWdDsiiLN/hXbhCusDbKjzISDypRKxpHYFkaVLURkV7o0L4mp1lOJ+4jIbeZzIk2NujYnn77QATqnhrBNazQ+8glSvpcZNiHJrIl0Yagfdm9VQr2mYy4GULVzKZqe00pxWmXyKIj8UG/oubW4Eb2XZa6yb2SZvmQO5y30bL/zwWbN109UVpRyAIVJ0g0SfK077Qjjtm2nrjBsJpDD1y4K1UqbTEczOYipmjdODmi1Smd7UxwX8tSAyegHpHkDdj7bd/KyTqrRWabhwUokctj0bDpyQ6k72gm/squTUfIJ/NLRlArFMm86UZpYmqbntF5IUJnY3/XwTyXNphf1eGZlx+nz+ucU/9SAtXo+IzZ/9GnPMjq4BsPy88g/ONMxPz4zrAXyFnqDYb2w5CFLg2GtYoTeUHAYoTcUHEboDQWHEXpDwWGE3lBwGKE3FBjA/wMVjrXt/Hf5BAAAAABJRU5ErkJggg==;" vertex="1" parent="1">
                    <mxGeometry x="710" y="300" width="189" height="92" as="geometry"/>
                </mxCell>
                <mxCell id="56" value="&lt;p style=&quot;margin:0px;margin-top:4px;margin-left:10px;text-align:left;&quot;&gt;&lt;b&gt;images&lt;/b&gt;&lt;/p&gt;" style="html=1;shape=mxgraph.sysml.package;html=1;overflow=fill;whiteSpace=wrap;" vertex="1" parent="1">
                    <mxGeometry x="690" y="440" width="220" height="130" as="geometry"/>
                </mxCell>
                <mxCell id="57" value="" style="shape=image;verticalLabelPosition=bottom;labelBackgroundColor=default;verticalAlign=top;aspect=fixed;imageAspect=0;image=data:image/png,iVBORw0KGgoAAAANSUhEUgAAAJwAAAAxCAYAAAAvOsB9AAAAAXNSR0IArs4c6QAAAARnQU1BAACxjwv8YQUAAAAJcEhZcwAADsMAAA7DAcdvqGQAAAjPSURBVHhe7ZzvTxzHGce/DcbhjM9n7kwwCXfyUUoCbuKjQYntqpyUqOJVeel3lZpX/Qf6on3Xd62qvu2LqC+qKu/ad/SVFckSlhIrki2uRAKBApccbgBTzG0IBgtS+jwzs3uzd7d7u8exPsh8pBP7a3ZmZ7/zzDOz8/CDWPflIxgMEfGS+mswRIIRnCFSjOAMkWIEZ4gUz0HDuVQPun86rvYqHP53G7ufPlR7BkM4PAWX/uuf1FYFFhvz7MFDWNMfi22DIQx1u9SXX/+h2nLzfGkZ3/zrY1y4NY7E1M/V0SBkMDz5Swyn1G4ExDJTeI/yfO/dNxFTx1pDAgPvTmGgtTcViDKr8ort0Yw68Sbenmx9nj2jVD92HhHR0Xm+6/dq2+HclSS6b9d2pwerXwvBHe3t4+L7P0NHdwzPF1fUWT8sbC3PYWtP7Z44GQzevIr1+//Ev798gkN1tDV04dLANWBjEd80vDE3tCnceLmM4qaljmmwkN6fRLws6+bQWkTxP7K8nYnXkT6/LtMdPsHasp0fC/4Oru4fvz73N+fql+sEaWrQwD6cbem8rOGLx8JuZAL3w4IVz9W1Tj3ZHMnn+4WvhWNhbf3l7zifflUc47/clfIvNnYdL12I0TWP8N2W9O284ZaeR+xr2UrZlF+PHSF+cxI3hm4gKyxAQloDZ7/S8vj62z+h43Sus1xGaiKH/y1/hX113oWwGjfxCr3Kfro+efAV1qznoouauPmOuEd26BoOVFmcspXP40cTkxipk7+eNnmwjt34Vc3CKSsm7ludNoHUUAzlYhf6utdFORyonNcz6yhtXkXnrrRWIp/X9kR6l4UTzzSC/eUjZCYnke0CLr1KeV05wjpbRGUpRdnp16kspp2u4+AGxqn8znGFfA+yfuR2GR1vTGH8x3wfvY4Y/Tl7UC5fw+3skaueguBr4VhMhyQm/ttqEiNJbN79CPfuzuBxOk/+Vta1b/t7/BLGMEPH+dxH2OzLY0Ceqs/e53jE90AJs3T9oxJVSCqPWyOW2Bf3uV9E30QePSoJC2N4CJgX5935i7T9RTxQaeeRw/BldU50b3nEF6ad8s0ij7czbru1WypgZySn5SetG9ZK2FX7wShh6e40lsrA44eU32efQ+iqN4mN+zL/ew9LGBjXny2DPlV/S1vqkAcJKiPm7PtYGHbqSD4nOE/xnEX0jjfn+/kKLvmrO8KaXfpF7QCBu9TjYC0UIO1iCZurtfvxbn5pGaRHgKViSZxhtudZTGGgyhrK0AuaUfcnSJQrqxn0OoMYC0tz8uW581dpv7DPUdLSjHjhghSJDwXMs6gV28UC0J+pGqjwPcmvdIRIeadLWNHSHQcu02O7gFvFqvoJno+1oN+nQM+p6kg956ojWBI+CbsZfAV37kqPEBv/fb64LH7M07/9A7ufRDUX1wpfzMKzZ2pTsf+tpURVC5+rUJvWxY7liFGwZ2HncpKGFm50IcYyObKKdgNrBdzd0YhT/Br0AIGhet9Rm0z1czZJoEEDC+3Jnz8UQuO/0U78JkCD4QqxBOJqMzgJXLigNhVdFxPY2Q3S8qvT0r7TpRLxhNuacfnKT2v9S7aqOzmkU2y1rZZZNym2HJ7ZXapwJ1oB1Xtca2xVzxnzaKyNaCg4W2wM+3O2lYsG7orIv8pW/IXwIzsLW2uW268hZ3qQurTNBj6Nk3aoMpfH1smxINx9Xc5hVPPZbN+snjXY3pD+1cBqsXXWTTRArRdIZX0sHPti3vOh7MPZdRTLkB+LohxkqOdMO+m40ZyA4HSxvSi258lJjvOgQnYZvRvhW/BeaRoPFhIYs7udiSRWyBIEeemcdpYs0y2VdpR8GceHY1+G7rMzoiaZ6Tf47bQcqNRD+EXkL2o+aXgs8ilZuJQfTxKT5ZzXn62PBhTqyrBYC0/Rq+4jBllqUCKe834Bcc5TnKcBXpM+XN1PW/wdtf+Pv/O1Zh2ppPDt1n77B2H5IoOH+m/RiNKpDEOz8FRI74YcvfK2b2OpgmcPRmn0G/R6m9Af73X2F1ci7mK5S5hC3xpXDM/b1TrIPF3QaPhvYGzfb1qMTEMJjhv9RBYbKm0Y2n6JOVfEWFrtMKszuDd/nC7p+w4LTTZUa6EiMH/BVdLYNNuw215whrNFoGkRg6FVGMEZIsUIzhApRnCGSDGCM0SKEZwhUkJP/JqoLcNx8BScidoynAR1u9SzELUVFv426BfBxOerV/IGIpVvIjKq/eurWUL7cHoATXDR8aoK840zOGe3vpoaNJyOqC1DO1LXh2MRvfKbX0thka+W/OCOp7B4vVzjFSP1VibIwBLxQVh8kEflA3HVB3r9Az7HJmCcA2781rPpH5stLDmrGqo+Qmv5cJd562Khkq9YEaEWe5YLmF3LYtBejqOfI9wfsvU8Spil8dVYX9Gdj7N4US+bTr36msFGf14F8FSl8ytrm+Fr4U5l1JZYwqRHGNkvRh5vFGEloRcult+oe8wBg9oKV+8oqeq8q6KbGkaPeeMdUeVf1nbDV3CnM2pLBn/UBMgEjrBikZPlXS1ULIhYVVtJ5xkl5RvdRGJsGD3mjVdEVaOythu+gjutUVu8LH2jXy77dlmwgBFWjOWK3KqGuzx7uXWVxfWNbgoXPeaNO6LKv6ztRaBBAwvtdEVtWXj8GXcxUnjO9ELQCCsicdEtAo7yktj+lerC2AVQZwS+0U3HiR7TcUdUeZe1/WgoOFtszOmL2tK61xARVnubRVhp7f+BkFM+aK869ouS8o1uahQ9xv5f+Igq37K2Ib6C08X2oggftSVfnH09DzjkaC1EhBX5QY+EY67u8xawYvtFvlFS/tFNx4ke84yo8itrG1J3WsREbb1ouNuuTP34xxvUwtfb0VjtRuiP9zomauuE4M9hQ0/xQDWqUILjtPTaZgNazqjxFFy7oE/6Cs5y1JYQC/ur7oldX8Hpk74Cr8nk9qDtBWc4WwSaFjEYWoURnCFSjOAMkWIEZ4gUIzhDpBjBGSIE+D+0KkUNhRdZNAAAAABJRU5ErkJggg==;" vertex="1" parent="1">
                    <mxGeometry x="720" y="490" width="156" height="49" as="geometry"/>
                </mxCell>
                <mxCell id="58" value="&lt;p style=&quot;margin:0px;margin-top:4px;margin-left:10px;text-align:left;&quot;&gt;&lt;b&gt;lib&lt;/b&gt;&lt;/p&gt;" style="html=1;shape=mxgraph.sysml.package;html=1;overflow=fill;whiteSpace=wrap;" vertex="1" parent="1">
                    <mxGeometry x="940" y="270" width="220" height="130" as="geometry"/>
                </mxCell>
                <mxCell id="59" value="" style="shape=image;verticalLabelPosition=bottom;labelBackgroundColor=default;verticalAlign=top;aspect=fixed;imageAspect=0;image=data:image/png,iVBORw0KGgoAAAANSUhEUgAAAKEAAAAXCAYAAABjwi/eAAAAAXNSR0IArs4c6QAAAARnQU1BAACxjwv8YQUAAAAJcEhZcwAADsMAAA7DAcdvqGQAAAVOSURBVGhD7Zrdbts2FMf/GyBPtjPDWmI4ieu1g1NgGHJTtHd9kb3Edren2N32ENvu9hIDdpFtN7kI1hhNmzmx4doykthV7QHbORRFUbI+7NSOW5Q/QAhJiSJ5dHg+6HxULFf/g8GwQT6Wfw2GjZFpCZ9WSvihVcfnn1iyJZuXb2b4/p8Bfu5fyRaDIZ9MS/jdvc8WVkCGn/26VpE1g2ExMpWwKRWQLVzeFRD0WTWl+hM0HVuVH9YdUX5rrD00vzxENW3a5VY4lni2hZJf+zDJk9ctyHTHfzz6Qli32u9/y5Z0WPl+JNfNfx//9Vy2rg5WvO3pMc5dT7ZIWCitEgYnbUxk00phJdwa4lnPXfFYDmqk0FVZ83oJaxPYqN4/RK3o19Kf82E5NRwXnYQ5Zt1jLOcQD+r+RgfSn1s1K0lMAmV9+eZf2WLIpWxj1j7CsxO62h2gfpBoXSznADWv7T9HSuGlPOdbqCcoTzuYU9GsewoH1UJHjnOEs14Rjft7WI9fi7KR7Jh33EMSirg0t6q3Nx0SClmAJIEr18xWqtUgW+GgIfrIXSyF7r8rx32KZ/Vn2ELl9OVxg2diYUFkbVkfcXyJURDFzFxcv5blGFbBxuiGrLDAxdi1qU1WdWaXOCfl6d/Iuk7WPYWLPlt7yexmAK9Ymp9/TF6R9cbb63v0DaPtSaxECdn9clz4tCJ9Rhb0AR9UBjiTO064uYT2LhrKBaUyJgtBVsQTruNIuilSotY2rgMrc44ldjS7vhZwLvueDFFuxmNPUnh2z+L+Mfp2Syk/C15fQ2fRQwLLwacYYByG1orZ1EN1K5iDg7LjUZusrpNCCbY7zHHHNsoFbb0uyUbflM42cMH3st36ytzxn9Il5zKdJOww+vg7DkavLhEah1P0U6xDFpbTQNXthFZmPMQoGC9iIROsbJkUH9R3LOtsHc5D6+BDCq8shkdzdmFXHHo/fZAK0L8I1zBx/bJIpIJx1UdihZdt+0D3RdhPZ+Ye42zakP0b5MKPw7WtC5ZTs4j+ML72OLT+nrZeZbEl+nfI4O7dMbsGtk5CqLqZXuEOdzR3SWNUUUSBFU66pcCKJQrIo3nI4kLwphKFIqzia0wTOk96wZh06Qr8QrZdALs011pZ3lL4irqLU9n/FNjXwo41INwob4o0+cTRQ5M5r7EYCykhH1qnwdnwMmeJAnajLNSIq4zHOvxRZXFJOINUH11cS1gPm+Yhi4xVyJkEuy2luFLZl4U2R7fnwab4LwK76aKLgcqGdcu7elgBhcKnWOU5WAF3JmFoNec1FmMhJeRfTZIUMTiWuTXKNXsYX1HssxPGbsKtyvIycECdlmnmIlw3jassEiVH6sgiwMG2skQUf9Lu9xMHP2mo7YdrKDnpsWj0nj+OR/EfoxIvkbBQHKhZyBLHh0LpfSs5bz2XQXsHueBdime7Scc/c8mbj9igmucQc7sFC50TLgMnKJnnhLx7lNn20NdiHP8cyy97vTauKw0KbP37fC84J9TLTNBPnaFFxiBcsrxa5heBBayf/Yk6Z9wMxX9srWPnhNe9ImpSOePndvoassYVSYym4CNKhvoyFo2uL3qeGL6TFegQ1quwnyC+Hp25e9o7EJOZRMxrqvWLvMPvHySQI9elefqyEuvjI580uWtkKuGvX93LdMVJ/NS/wrftrqy9DbzAA6WEa4OFmpEYGGKsQV6Z7vibdg+/XU3UT3OLXL+8Z/+8YG1tazGdIY91yOsd/n/C9VrC0B3e3c9T7zPrlNc7rISGD4W7Pyc0GGIYJTRsHKOEho1jlNCwcYwSGjYM8D/qR7wIQGqSfAAAAABJRU5ErkJggg==;" vertex="1" parent="1">
                    <mxGeometry x="969.5" y="337" width="161" height="23" as="geometry"/>
                </mxCell>
                <mxCell id="60" value="&lt;p style=&quot;margin:0px;margin-top:4px;margin-left:10px;text-align:left;&quot;&gt;&lt;b&gt;lib&lt;/b&gt;&lt;/p&gt;" style="html=1;shape=mxgraph.sysml.package;html=1;overflow=fill;whiteSpace=wrap;" vertex="1" parent="1">
                    <mxGeometry x="940" y="440" width="220" height="130" as="geometry"/>
                </mxCell>
                <mxCell id="61" value="" style="shape=image;verticalLabelPosition=bottom;labelBackgroundColor=default;verticalAlign=top;aspect=fixed;imageAspect=0;image=data:image/png,iVBORw0KGgoAAAANSUhEUgAAAF0AAAAYCAYAAACY5PEcAAAAAXNSR0IArs4c6QAAAARnQU1BAACxjwv8YQUAAAAJcEhZcwAADsMAAA7DAcdvqGQAAAQHSURBVGhD7ZhdSFNhGMf/ZYrzo6OtsMCdmogxI7ZSSqUU7GJe7TYCR9113VVQBN0YdNVVF90VGl1145XeCIsgAsOV4EjI4WapibZTy5V9rOd5z7t5Nrd1puWSzg8Oez/Pec//fd7nec522arrkrDYVnbLX4ttxBK9BBR0L92eCpylq99rw+GDZZhd+CHanwTX8PTlGgZHEqJuURx5RR+5s0+IXggWv+/Kiqz9f9hUHzprghibisgWc+R0Lyz27wRnzI6zyCSn6OxGUq6kEDyGrd2iOMrKKypvynIad3M57j5ehfY5mdOSWWzuP38jJvrNbBCgosXro3u74WyuRyx2BF3OJMJLGp3T42hra0Ds7Xt8F2MVNJ72Yu/Ka3wUDca5R/DtnWzneedcKPvmRnvHKZTHXuGn049jtiRqO7xw709ige5Z2+pH10meS5ds059jQNzLC1dqfW9m8SW7nebGyjpwTFnAvPYV5cpROCoW9Hcogj3yNwMOmhxAB+7HMSSDJbelYOvmOvv9h6NmgimL2AOMD2JsmessItWjYdFbmKy5LEJ3Dz6PBvBB9KtowDDGRvUXr2+gGa59mBkdxLRoUeFAgPrZ7/K9fGhVI3gRMQpF6+l2YvHJIF5kvE5Wu3i2AoT03s2S072wqNcv1iD06ACu0W9/n569pDbj3lVF9LGVm3Ivdg9aEERUCM5EMD1uMvhkz01EsBhTUG2TdbrXTIaAgBYKyg1h6FnpQKdheT6XVWpYpXtWVcmqxKZ60BgNYi61EYlJTIWKs+pc5M3TBx7Ehch+Epw3gIXmi8vcxi6lqMzlkwYzZyIndR50ev3oFZcPLXUbBSoEZxn6XD86XWSpG9Aw9zwAtOtjWuyymdDiWxc5m7zZC+O6sITLtzWxAZyT88VlbuM+xnT2UqsgbZyErTrXy+chyu6B3Ivhmk6fmsKk0zo571leS6UTIcaw+D40ysUqNZnrrMyqb4a82QtbNLsWhv06C32LBOeySieArZ59uqkguhzGHFmrI21B5GeNFpfQ8KnOCbt8UZvaQ9asl8VcB9UN1lcMLNK6tSqwH1p/bj0F2DY1W8R1V5NYCkNzkItJWQv59CaHLG+BvB9H1y/VCOELUdTHkQhCHnptJoKJceBEQzj9YSEsUm6EFgpg8ZAHeDWs+9OMuUQsiGfPJ5EQ7Rw0U0FVF7IpPmwIlHrQbhRlciNROnTxgOhfH6sYxvDzDfPtPehtV/UyPXdi3okmCszcv9mPo4J/A7DvPuPWP4DYv6eseogylgiVt/I3AC+4VS5+J/En1l2av3aFhXIqJi15B7GDRDcecZ05yrvNBsN/iZ1r6f85efN0i7+HJXoJsEQvAZboJcASvQRYom87wC9W67eP6KDPQAAAAABJRU5ErkJggg==;" vertex="1" parent="1">
                    <mxGeometry x="1003.5" y="502.5" width="93" height="24" as="geometry"/>
                </mxCell>
            </root>
        </mxGraphModel>
    </diagram>
</mxfile>